<svg width="99" height="21" viewBox="0 0 99 21" fill="none" xmlns="http://www.w3.org/2000/svg">
<path d="M51.8276 7.18357H47.9391C47.8681 6.68049 47.7231 6.23364 47.5041 5.84302C47.2851 5.44647 47.004 5.10912 46.6607 4.83094C46.3174 4.55277 45.9209 4.3397 45.4711 4.19174C45.0272 4.04378 44.5448 3.96979 44.024 3.96979C43.0829 3.96979 42.2632 4.20358 41.5648 4.67114C40.8664 5.13279 40.3249 5.80751 39.9402 6.69529C39.5555 7.57716 39.3631 8.64842 39.3631 9.90907C39.3631 11.2052 39.5555 12.2942 39.9402 13.1761C40.3308 14.058 40.8753 14.7238 41.5737 15.1736C42.2721 15.6234 43.08 15.8483 43.9974 15.8483C44.5123 15.8483 44.9887 15.7803 45.4267 15.6442C45.8706 15.508 46.2642 15.3098 46.6074 15.0493C46.9507 14.783 47.2348 14.4604 47.4597 14.0817C47.6905 13.7029 47.8503 13.2708 47.9391 12.7855L51.8276 12.8032C51.727 13.6378 51.4755 14.4427 51.073 15.218C50.6765 15.9874 50.1408 16.6769 49.4661 17.2866C48.7973 17.8902 47.9983 18.3697 47.0691 18.7248C46.1458 19.074 45.1012 19.2486 43.9352 19.2486C42.3135 19.2486 40.8635 18.8816 39.5851 18.1477C38.3126 17.4138 37.3064 16.3514 36.5666 14.9606C35.8327 13.5697 35.4658 11.8859 35.4658 9.90907C35.4658 7.92635 35.8386 6.23956 36.5844 4.8487C37.3301 3.45784 38.3422 2.39842 39.6206 1.67043C40.899 0.936531 42.3372 0.56958 43.9352 0.56958C44.9887 0.56958 45.9653 0.717544 46.8649 1.01347C47.7704 1.3094 48.5724 1.74146 49.2708 2.30964C49.9692 2.8719 50.5374 3.56141 50.9753 4.37817C51.4192 5.19494 51.7033 6.13007 51.8276 7.18357Z" fill="white"/>
<path d="M19.3791 18.9999V0.818115H26.5524C27.9255 0.818115 29.0974 1.06374 30.068 1.55498C31.0446 2.0403 31.7874 2.72981 32.2963 3.62351C32.8113 4.5113 33.0687 5.55592 33.0687 6.75739C33.0687 7.96478 32.8083 9.00349 32.2875 9.87351C31.7666 10.7376 31.012 11.4005 30.0236 11.8621C29.0411 12.3238 27.8515 12.5546 26.4547 12.5546H21.6518V9.46513H25.8333C26.5672 9.46513 27.1768 9.36452 27.6621 9.16329C28.1474 8.96205 28.5085 8.66021 28.7452 8.25775C28.9879 7.85528 29.1092 7.35517 29.1092 6.75739C29.1092 6.1537 28.9879 5.6447 28.7452 5.2304C28.5085 4.8161 28.1445 4.50242 27.6532 4.28935C27.1679 4.07036 26.5553 3.96087 25.8155 3.96087H23.2232V18.9999H19.3791ZM29.198 10.7258L33.7168 18.9999H29.4732L25.052 10.7258H29.198Z" fill="white"/>
<path d="M16.6225 7.18357H12.734C12.663 6.68049 12.518 6.23364 12.299 5.84302C12.08 5.44647 11.7989 5.10912 11.4556 4.83094C11.1124 4.55277 10.7158 4.3397 10.266 4.19174C9.82212 4.04378 9.33975 3.96979 8.81892 3.96979C7.87787 3.96979 7.05815 4.20358 6.35976 4.67114C5.66137 5.13279 5.11982 5.80751 4.73511 6.69529C4.35041 7.57716 4.15805 8.64842 4.15805 9.90907C4.15805 11.2052 4.35041 12.2942 4.73511 13.1761C5.12574 14.058 5.67025 14.7238 6.36864 15.1736C7.06703 15.6234 7.87491 15.8483 8.79229 15.8483C9.3072 15.8483 9.78365 15.7803 10.2216 15.6442C10.6655 15.508 11.0591 15.3098 11.4024 15.0493C11.7456 14.783 12.0297 14.4604 12.2546 14.0817C12.4855 13.7029 12.6453 13.2708 12.734 12.7855L16.6225 12.8032C16.5219 13.6378 16.2704 14.4427 15.8679 15.218C15.4714 15.9874 14.9358 16.6769 14.261 17.2866C13.5922 17.8902 12.7932 18.3697 11.864 18.7248C10.9407 19.074 9.8961 19.2486 8.73014 19.2486C7.10846 19.2486 5.65841 18.8816 4.38 18.1477C3.10751 17.4138 2.10135 16.3514 1.36153 14.9606C0.627632 13.5697 0.260681 11.8859 0.260681 9.90907C0.260681 7.92635 0.633551 6.23956 1.37929 4.8487C2.12503 3.45784 3.1371 2.39842 4.41551 1.67043C5.69392 0.936531 7.13213 0.56958 8.73014 0.56958C9.78365 0.56958 10.7602 0.717544 11.6598 1.01347C12.5654 1.3094 13.3673 1.74146 14.0657 2.30964C14.7641 2.8719 15.3323 3.56141 15.7703 4.37817C16.2142 5.19494 16.4983 6.13007 16.6225 7.18357Z" fill="white"/>
<path fill-rule="evenodd" clip-rule="evenodd" d="M59 1V21H58V1H59Z" fill="white"/>
<path d="M79.5831 20V15.6364H81.0576C81.3985 15.6364 81.6783 15.6946 81.897 15.8111C82.1158 15.9261 82.2777 16.0845 82.3828 16.2862C82.488 16.4879 82.5405 16.7173 82.5405 16.9744C82.5405 17.2315 82.488 17.4595 82.3828 17.6584C82.2777 17.8572 82.1165 18.0135 81.8992 18.1271C81.6818 18.2393 81.4042 18.2954 81.0661 18.2954H79.8729V17.8182H81.049C81.282 17.8182 81.4695 17.7841 81.6115 17.7159C81.755 17.6477 81.8587 17.5511 81.9226 17.4261C81.988 17.2997 82.0206 17.1491 82.0206 16.9744C82.0206 16.7997 81.988 16.647 81.9226 16.5163C81.8573 16.3856 81.7529 16.2848 81.6094 16.2138C81.4659 16.1413 81.2763 16.1051 81.0405 16.1051H80.1115V20H79.5831ZM81.6371 18.0398L82.711 20H82.0973L81.0405 18.0398H81.6371Z" fill="white"/>
<path d="M75.9972 20V15.6364H78.6307V16.1051H76.5256V17.5795H78.4944V18.0483H76.5256V19.5312H78.6648V20H75.9972Z" fill="white"/>
<path d="M74.9398 15.6364V20H74.4285L72.0506 16.5739H72.008V20H71.4796V15.6364H71.991L74.3773 19.071H74.42V15.6364H74.9398Z" fill="white"/>
<path d="M67.8937 20V15.6364H70.5272V16.1051H68.4221V17.5795H70.3908V18.0483H68.4221V19.5312H70.5613V20H67.8937Z" fill="white"/>
<path d="M67.0398 17H66.5114C66.4801 16.848 66.4254 16.7144 66.3473 16.5994C66.2706 16.4843 66.1769 16.3877 66.0661 16.3096C65.9567 16.2301 65.8352 16.1704 65.7017 16.1306C65.5682 16.0909 65.429 16.071 65.2841 16.071C65.0199 16.071 64.7806 16.1377 64.5661 16.2713C64.353 16.4048 64.1833 16.6015 64.0568 16.8615C63.9318 17.1214 63.8693 17.4403 63.8693 17.8181C63.8693 18.196 63.9318 18.5149 64.0568 18.7748C64.1833 19.0348 64.353 19.2315 64.5661 19.365C64.7806 19.4985 65.0199 19.5653 65.2841 19.5653C65.429 19.5653 65.5682 19.5454 65.7017 19.5056C65.8352 19.4659 65.9567 19.4069 66.0661 19.3288C66.1769 19.2492 66.2706 19.1519 66.3473 19.0369C66.4254 18.9204 66.4801 18.7869 66.5114 18.6363H67.0398C67 18.8593 66.9276 19.0589 66.8225 19.235C66.7173 19.4112 66.5867 19.561 66.4304 19.6846C66.2742 19.8068 66.0987 19.8998 65.9041 19.9637C65.711 20.0277 65.5043 20.0596 65.2841 20.0596C64.9119 20.0596 64.581 19.9687 64.2912 19.7869C64.0014 19.6051 63.7735 19.3465 63.6073 19.0113C63.4411 18.6761 63.358 18.2784 63.358 17.8181C63.358 17.3579 63.4411 16.9602 63.6073 16.625C63.7735 16.2897 64.0014 16.0312 64.2912 15.8494C64.581 15.6676 64.9119 15.5767 65.2841 15.5767C65.5043 15.5767 65.711 15.6086 65.9041 15.6725C66.0987 15.7365 66.2742 15.8302 66.4304 15.9538C66.5867 16.076 66.7173 16.2251 66.8225 16.4012C66.9276 16.5759 67 16.7755 67.0398 17Z" fill="white"/>
<path d="M90.6222 13V8.63635H91.1506V10.5795H93.4773V8.63635H94.0057V13H93.4773V11.0483H91.1506V13H90.6222Z" fill="white"/>
<path d="M89.7683 9.99996H89.2399C89.2086 9.84797 89.154 9.71444 89.0758 9.59939C88.9991 9.48433 88.9054 9.38774 88.7946 9.30962C88.6852 9.23007 88.5638 9.17041 88.4302 9.13064C88.2967 9.09087 88.1575 9.07098 88.0126 9.07098C87.7484 9.07098 87.5091 9.13774 87.2946 9.27126C87.0815 9.40479 86.9118 9.60152 86.7854 9.86146C86.6604 10.1214 86.5979 10.4403 86.5979 10.8181C86.5979 11.196 86.6604 11.5149 86.7854 11.7748C86.9118 12.0348 87.0815 12.2315 87.2946 12.365C87.5091 12.4985 87.7484 12.5653 88.0126 12.5653C88.1575 12.5653 88.2967 12.5454 88.4302 12.5056C88.5638 12.4659 88.6852 12.4069 88.7946 12.3288C88.9054 12.2492 88.9991 12.1519 89.0758 12.0369C89.154 11.9204 89.2086 11.7869 89.2399 11.6363H89.7683C89.7285 11.8593 89.6561 12.0589 89.551 12.235C89.4459 12.4112 89.3152 12.561 89.1589 12.6846C89.0027 12.8068 88.8273 12.8998 88.6327 12.9637C88.4395 13.0277 88.2328 13.0596 88.0126 13.0596C87.6405 13.0596 87.3095 12.9687 87.0197 12.7869C86.73 12.6051 86.502 12.3465 86.3358 12.0113C86.1696 11.6761 86.0865 11.2784 86.0865 10.8181C86.0865 10.3579 86.1696 9.96018 86.3358 9.62496C86.502 9.28973 86.73 9.03121 87.0197 8.84939C87.3095 8.66757 87.6405 8.57666 88.0126 8.57666C88.2328 8.57666 88.4395 8.60862 88.6327 8.67254C88.8273 8.73646 89.0027 8.83021 89.1589 8.95379C89.3152 9.07595 89.4459 9.2251 89.551 9.40123C89.6561 9.57595 89.7285 9.77552 89.7683 9.99996Z" fill="white"/>
<path d="M82.4191 13V8.63635H83.8935C84.2344 8.63635 84.5142 8.69459 84.733 8.81107C84.9517 8.92612 85.1137 9.08451 85.2188 9.28621C85.3239 9.48791 85.3765 9.71732 85.3765 9.97442C85.3765 10.2315 85.3239 10.4595 85.2188 10.6584C85.1137 10.8572 84.9524 11.0135 84.7351 11.1271C84.5178 11.2393 84.2401 11.2954 83.902 11.2954H82.7088V10.8182H83.885C84.1179 10.8182 84.3054 10.7841 84.4475 10.7159C84.5909 10.6477 84.6946 10.5511 84.7586 10.4261C84.8239 10.2997 84.8566 10.1491 84.8566 9.97442C84.8566 9.7997 84.8239 9.64701 84.7586 9.51632C84.6932 9.38564 84.5888 9.28479 84.4453 9.21377C84.3019 9.14132 84.1122 9.1051 83.8765 9.1051H82.9475V13H82.4191ZM84.473 11.0398L85.5469 13H84.9333L83.8765 11.0398H84.473Z" fill="white"/>
<path d="M78.5434 13H77.9894L79.5917 8.63635H80.1371L81.7394 13H81.1854L79.8814 9.32669H79.8473L78.5434 13ZM78.7479 11.2954H80.9809V11.7642H78.7479V11.2954Z" fill="white"/>
<path d="M74.7784 13V8.63635H77.412V9.1051H75.3069V10.5795H77.2756V11.0483H75.3069V12.5312H77.4461V13H74.7784Z" fill="white"/>
<path d="M73.3386 9.72723C73.3131 9.51132 73.2094 9.34371 73.0276 9.22439C72.8457 9.10507 72.6227 9.04541 72.3585 9.04541C72.1653 9.04541 71.9963 9.07666 71.8514 9.13916C71.708 9.20166 71.5957 9.2876 71.5148 9.39697C71.4352 9.50635 71.3955 9.63064 71.3955 9.76984C71.3955 9.88632 71.4232 9.98646 71.4785 10.0703C71.5354 10.1527 71.6078 10.2215 71.6959 10.2769C71.7839 10.3309 71.8763 10.3757 71.9729 10.4112C72.0695 10.4453 72.1582 10.473 72.2392 10.4943L72.6824 10.6136C72.796 10.6434 72.9224 10.6846 73.0616 10.7372C73.2023 10.7897 73.3365 10.8615 73.4643 10.9524C73.5936 11.0419 73.7001 11.1569 73.7839 11.2975C73.8678 11.4382 73.9097 11.6108 73.9097 11.8153C73.9097 12.0511 73.8479 12.2642 73.7243 12.4545C73.6021 12.6448 73.4232 12.7961 73.1874 12.9083C72.953 13.0206 72.6682 13.0767 72.333 13.0767C72.0205 13.0767 71.7499 13.0262 71.5212 12.9254C71.2939 12.8245 71.1149 12.6839 70.9842 12.5035C70.855 12.3231 70.7818 12.1136 70.7648 11.875H71.3102C71.3244 12.0397 71.3798 12.1761 71.4764 12.284C71.5744 12.3906 71.698 12.4701 71.8472 12.5227C71.9977 12.5738 72.1597 12.5994 72.333 12.5994C72.5347 12.5994 72.7158 12.5667 72.8763 12.5014C73.0368 12.4346 73.1639 12.3423 73.2577 12.2244C73.3514 12.1051 73.3983 11.9659 73.3983 11.8068C73.3983 11.6619 73.3578 11.544 73.2768 11.4531C73.1959 11.3622 73.0893 11.2883 72.9572 11.2315C72.8251 11.1747 72.6824 11.125 72.529 11.0823L71.992 10.9289C71.6511 10.8309 71.3812 10.691 71.1824 10.5092C70.9835 10.3274 70.8841 10.0894 70.8841 9.79541C70.8841 9.55109 70.9501 9.33802 71.0822 9.15621C71.2158 8.97297 71.3947 8.83092 71.6192 8.73007C71.845 8.6278 72.0972 8.57666 72.3756 8.57666C72.6568 8.57666 72.9068 8.62709 73.1256 8.72794C73.3443 8.82737 73.5176 8.96373 73.6455 9.13703C73.7747 9.31033 73.8429 9.50706 73.85 9.72723H73.3386Z" fill="white"/>
<path d="M67.3663 13V8.63635H69.9999V9.1051H67.8947V10.5795H69.8635V11.0483H67.8947V12.5312H70.0339V13H67.3663Z" fill="white"/>
<path d="M63.5284 13V8.63635H65.0029C65.3438 8.63635 65.6236 8.69459 65.8424 8.81107C66.0611 8.92612 66.223 9.08451 66.3282 9.28621C66.4333 9.48791 66.4858 9.71732 66.4858 9.97442C66.4858 10.2315 66.4333 10.4595 66.3282 10.6584C66.223 10.8572 66.0618 11.0135 65.8445 11.1271C65.6272 11.2393 65.3495 11.2954 65.0114 11.2954H63.8182V10.8182H64.9944C65.2273 10.8182 65.4148 10.7841 65.5569 10.7159C65.7003 10.6477 65.804 10.5511 65.8679 10.4261C65.9333 10.2997 65.9659 10.1491 65.9659 9.97442C65.9659 9.7997 65.9333 9.64701 65.8679 9.51632C65.8026 9.38564 65.6982 9.28479 65.5547 9.21377C65.4113 9.14132 65.2216 9.1051 64.9858 9.1051H64.0569V13H63.5284ZM65.5824 11.0398L66.6563 13H66.0426L64.9858 11.0398H65.5824Z" fill="white"/>
<path d="M95.6964 5.99999V1.63635H98.3299V2.1051H96.2248V3.57953H98.1936V4.04828H96.2248V5.53124H98.364V5.99999H95.6964Z" fill="white"/>
<path d="M94.8425 2.99996H94.3141C94.2829 2.84797 94.2282 2.71444 94.1501 2.59939C94.0733 2.48433 93.9796 2.38774 93.8688 2.30961C93.7594 2.23007 93.638 2.17041 93.5045 2.13064C93.3709 2.09086 93.2317 2.07098 93.0868 2.07098C92.8226 2.07098 92.5833 2.13774 92.3688 2.27126C92.1557 2.40479 91.986 2.60152 91.8596 2.86146C91.7346 3.1214 91.6721 3.4403 91.6721 3.81814C91.6721 4.19598 91.7346 4.51487 91.8596 4.77481C91.986 5.03476 92.1557 5.23149 92.3688 5.36501C92.5833 5.49854 92.8226 5.5653 93.0868 5.5653C93.2317 5.5653 93.3709 5.54541 93.5045 5.50564C93.638 5.46586 93.7594 5.40692 93.8688 5.32879C93.9796 5.24925 94.0733 5.15194 94.1501 5.03689C94.2282 4.92041 94.2829 4.78689 94.3141 4.63632H94.8425C94.8028 4.85933 94.7303 5.0589 94.6252 5.23504C94.5201 5.41118 94.3894 5.56104 94.2331 5.68461C94.0769 5.80677 93.9015 5.89981 93.7069 5.96373C93.5137 6.02765 93.307 6.05961 93.0868 6.05961C92.7147 6.05961 92.3837 5.96871 92.0939 5.78689C91.8042 5.60507 91.5762 5.34655 91.41 5.01132C91.2438 4.67609 91.1607 4.27836 91.1607 3.81814C91.1607 3.35791 91.2438 2.96018 91.41 2.62496C91.5762 2.28973 91.8042 2.03121 92.0939 1.84939C92.3837 1.66757 92.7147 1.57666 93.0868 1.57666C93.307 1.57666 93.5137 1.60862 93.7069 1.67254C93.9015 1.73646 94.0769 1.83021 94.2331 1.95379C94.3894 2.07595 94.5201 2.2251 94.6252 2.40123C94.7303 2.57595 94.8028 2.77552 94.8425 2.99996Z" fill="white"/>
<path d="M90.2738 1.63635V5.99999H89.7625L87.3846 2.57385H87.342V5.99999H86.8136V1.63635H87.325L89.7113 5.07101H89.7539V1.63635H90.2738Z" fill="white"/>
<path d="M83.2277 5.99999V1.63635H85.8612V2.1051H83.7561V3.57953H85.7248V4.04828H83.7561V5.53124H85.8953V5.99999H83.2277Z" fill="white"/>
<path d="M81.644 1.63635H82.1724V4.52556C82.1724 4.82385 82.1021 5.09019 81.9615 5.32456C81.8223 5.55752 81.6256 5.74147 81.3713 5.87641C81.117 6.00993 80.8187 6.07669 80.4764 6.07669C80.1341 6.07669 79.8358 6.00993 79.5815 5.87641C79.3273 5.74147 79.1298 5.55752 78.9892 5.32456C78.85 5.09019 78.7804 4.82385 78.7804 4.52556V1.63635H79.3088V4.48294C79.3088 4.69601 79.3557 4.88564 79.4494 5.05184C79.5432 5.21661 79.6767 5.34658 79.85 5.44175C80.0247 5.5355 80.2335 5.58238 80.4764 5.58238C80.7193 5.58238 80.9281 5.5355 81.1028 5.44175C81.2776 5.34658 81.4111 5.21661 81.5034 5.05184C81.5972 4.88564 81.644 4.69601 81.644 4.48294V1.63635Z" fill="white"/>
<path d="M75.4054 5.99999V1.63635H75.9338V5.53124H77.9622V5.99999H75.4054Z" fill="white"/>
<path d="M71.8839 5.99999V1.63635H74.5004V2.1051H72.4123V3.57953H74.3044V4.04828H72.4123V5.99999H71.8839Z" fill="white"/>
<path d="M67.5187 1.63635H68.1238L69.334 3.67328H69.3852L70.5954 1.63635H71.2005L69.6238 4.20169V5.99999H69.0954V4.20169L67.5187 1.63635Z" fill="white"/>
<path d="M67.0398 2.99996H66.5114C66.4801 2.84797 66.4254 2.71444 66.3473 2.59939C66.2706 2.48433 66.1769 2.38774 66.0661 2.30961C65.9567 2.23007 65.8352 2.17041 65.7017 2.13064C65.5682 2.09086 65.429 2.07098 65.2841 2.07098C65.0199 2.07098 64.7806 2.13774 64.5661 2.27126C64.353 2.40479 64.1833 2.60152 64.0568 2.86146C63.9318 3.1214 63.8693 3.4403 63.8693 3.81814C63.8693 4.19598 63.9318 4.51487 64.0568 4.77481C64.1833 5.03476 64.353 5.23149 64.5661 5.36501C64.7806 5.49854 65.0199 5.5653 65.2841 5.5653C65.429 5.5653 65.5682 5.54541 65.7017 5.50564C65.8352 5.46586 65.9567 5.40692 66.0661 5.32879C66.1769 5.24925 66.2706 5.15194 66.3473 5.03689C66.4254 4.92041 66.4801 4.78689 66.5114 4.63632H67.0398C67 4.85933 66.9276 5.0589 66.8225 5.23504C66.7173 5.41118 66.5867 5.56104 66.4304 5.68461C66.2742 5.80677 66.0987 5.89981 65.9041 5.96373C65.711 6.02765 65.5043 6.05961 65.2841 6.05961C64.9119 6.05961 64.581 5.96871 64.2912 5.78689C64.0014 5.60507 63.7735 5.34655 63.6073 5.01132C63.4411 4.67609 63.358 4.27836 63.358 3.81814C63.358 3.35791 63.4411 2.96018 63.6073 2.62496C63.7735 2.28973 64.0014 2.03121 64.2912 1.84939C64.581 1.66757 64.9119 1.57666 65.2841 1.57666C65.5043 1.57666 65.711 1.60862 65.9041 1.67254C66.0987 1.73646 66.2742 1.83021 66.4304 1.95379C66.5867 2.07595 66.7173 2.2251 66.8225 2.40123C66.9276 2.57595 67 2.77552 67.0398 2.99996Z" fill="white"/>
</svg>
